<svg xmlns="http://www.w3.org/2000/svg" width="68" height="42" viewBox="45 17 64 36" preserveAspectRatio="xMidYMid meet" style="background:transparent; overflow:visible">
  <g transform="translate(0,50) scale(0.1,-0.1)" fill="#7c7cff" stroke="none">
    <path d="M663 293 c-83 -29 -183 -146 -183 -214 0 -16 5 -20 20 -16 31 8 84 -10 110 -38 28 -30 44 -31 77 -5 35 27 102 27 137 -1 42 -33 51 -14 32 62 -16 60 -61 144 -91 169 -10 8 -18 8 -33 -1 -52 -32 -117 -179 -79 -179 9 0 22 19 32 48 18 55 50 96 68 89 13 -5 60 -86 71 -123 6 -20 3 -20 -51 -16 -41 4 -65 0 -89 -13 -31 -17 -33 -17 -70 9 -21 14 -46 26 -56 26 -9 0 -23 3 -32 6 -14 5 -14 9 -1 34 26 50 67 91 119 118 43 22 64 27 131 27 70 0 86 -4 127 -28 27 -15 59 -40 73 -55 l25 -27 -44 -22 c-48 -24 -83 -67 -64 -79 6 -4 18 2 27 12 26 32 64 54 93 54 37 0 36 18 -5 72 -21 27 -56 55 -96 75 -54 29 -72 33 -134 32 -40 0 -91 -7 -114 -16z"/>
    <path d="M745 10 c-3 -5 1 -10 10 -10 9 0 13 5 10 10 -3 6 -8 10 -10 10 -2 0 -7 -4 -10 -10z"/>
  </g>
</svg>
